<?xml version="1.0" standalone="no"?>
<!DOCTYPE svg PUBLIC "-//W3C//DTD SVG 20010904//EN"
 "http://www.w3.org/TR/2001/REC-SVG-20010904/DTD/svg10.dtd">
<svg version="1.0" xmlns="http://www.w3.org/2000/svg"
 width="558.000000pt" height="558.000000pt" viewBox="0 0 558.000000 558.000000"
 preserveAspectRatio="xMidYMid meet">
<metadata>
Created by potrace 1.11, written by Peter Selinger 2001-2013
</metadata>
<g transform="translate(0.000000,558.000000) scale(0.100000,-0.100000)"
fill="#000000" stroke="none">
<path d="M2041 4066 c-9 -10 -11 -298 -9 -1117 l3 -1104 23 -56 c42 -104 119
-161 239 -179 87 -12 994 -12 1091 0 100 13 164 43 216 101 59 65 77 121 83
252 l6 107 -558 0 -558 0 6 182 c4 99 7 225 7 279 l0 99 402 2 403 3 13 55
c17 75 12 324 -9 365 l-14 30 -398 0 -397 0 0 81 c0 44 -3 163 -7 262 l-6 182
500 0 501 0 18 68 c15 51 19 102 19 217 0 83 -3 158 -7 168 -7 16 -54 17 -781
17 -647 0 -776 -2 -786 -14z"/>
</g>
</svg>
